# xmcd
#
# Track frame offsets: 
#        150
#        12513
#        24489
#        40411
#        49696
#        65285
#        77993
#        88442
#        100391
#        112701
#
# Disc length: 1621 seconds
#
# Revision: 0
# Processed by: cddbd v1.5.2PL0 Copyright (c) Steve Scherf et al.
# Submitted via: ExactAudioCopyFreeDBPlugin 1.0
#
DISCID=7d06530a
DTITLE=The Isley Brothers - It's Our Thing
DYEAR=1969
DGENRE=Funk
TTITLE0=I Know Who You Been Socking It To
TTITLE1=Somebody Been Messin'
TTITLE2=Save Me
TTITLE3=I Must Be Losing My Touch
TTITLE4=Feel Like The World
TTITLE5=It's Your Thing
TTITLE6=Give The Women What They Want
TTITLE7=Love Is What You Make It
TTITLE8=Don't Give It Away
TTITLE9=He's Got Your Love
EXTD=
EXTT0=
EXTT1=
EXTT2=
EXTT3=
EXTT4=
EXTT5=
EXTT6=
EXTT7=
EXTT8=
EXTT9=
PLAYORDER=
